<svg width="215" height="135" viewBox="0 0 215 135" fill="none" xmlns="http://www.w3.org/2000/svg">
<path fill-rule="evenodd" clip-rule="evenodd" d="M64.7969 132.232H65.3152V131.092C65.4117 131.226 65.5188 131.352 65.6356 131.469C66.0739 131.909 66.6331 132.209 67.2421 132.331C67.8512 132.453 68.4828 132.392 69.0569 132.155C69.6311 131.918 70.1219 131.515 70.4673 130.999C70.8126 130.483 70.997 129.876 70.997 129.254C70.997 128.633 70.8126 128.026 70.4673 127.51C70.1219 126.993 69.6311 126.591 69.0569 126.354C68.4828 126.117 67.8512 126.055 67.2421 126.178C66.6331 126.3 66.0739 126.6 65.6356 127.04C65.5189 127.153 65.4118 127.276 65.3152 127.407V123.091H64.7969V132.232V132.232ZM66.0219 127.426C66.3844 127.064 66.8462 126.817 67.3489 126.717C67.8515 126.617 68.3725 126.669 68.846 126.865C69.3194 127.061 69.7241 127.393 70.0088 127.819C70.2935 128.246 70.4455 128.747 70.4455 129.259C70.4455 129.772 70.2935 130.273 70.0088 130.699C69.7241 131.125 69.3194 131.457 68.846 131.653C68.3725 131.849 67.8515 131.901 67.3489 131.801C66.8462 131.701 66.3844 131.454 66.0219 131.092C65.6556 130.747 65.4081 130.295 65.3152 129.801V128.727C65.4075 128.229 65.6549 127.774 66.0219 127.426ZM76.3879 126.625H75.8131L73.9284 130.536L72.0436 126.625H71.4688L73.5985 131.196L72.119 134.362H72.6939L76.3879 126.625ZM84.8692 122.969C83.7782 122.969 82.721 123.347 81.8779 124.039C81.0348 124.732 80.4581 125.695 80.2462 126.765C80.0343 127.836 80.2003 128.946 80.7159 129.908C81.2316 130.869 82.0649 131.622 83.0736 132.037C84.0823 132.453 85.204 132.505 86.2472 132.186C87.2904 131.867 88.1905 131.195 88.7939 130.286C89.3972 129.378 89.6665 128.287 89.5557 127.202C89.4449 126.117 88.9609 125.103 88.1863 124.335C87.7575 123.891 87.2415 123.54 86.6706 123.305C86.0998 123.07 85.4864 122.956 84.8692 122.969V122.969ZM87.8188 124.712C88.4964 125.393 88.917 126.288 89.0091 127.245C89.1011 128.201 88.8589 129.16 88.3236 129.958C87.7883 130.756 86.9931 131.344 86.0732 131.621C85.1533 131.899 84.1657 131.849 83.2783 131.481C82.3909 131.112 81.6587 130.448 81.2062 129.6C80.7537 128.752 80.6089 127.774 80.7965 126.832C80.984 125.889 81.4923 125.041 82.2349 124.431C82.9774 123.821 83.9083 123.488 84.8692 123.487C85.4187 123.477 85.9642 123.581 86.4717 123.792C86.9792 124.003 87.4378 124.316 87.8188 124.712V124.712ZM92.6814 126.597L91.1171 128.482V124.175H90.5988V132.166H91.1171V129.339L91.6165 128.717L93.5012 132.204H94.142L91.9369 128.303L93.3222 126.597H92.6814ZM96.8937 129.726C97.0036 129.83 97.0912 129.956 97.1511 130.095C97.2111 130.234 97.2421 130.384 97.2424 130.536C97.2437 130.687 97.2151 130.837 97.1585 130.977C97.1019 131.117 97.0182 131.244 96.9124 131.352C96.8065 131.459 96.6804 131.545 96.5414 131.604C96.4024 131.663 96.2531 131.694 96.1022 131.695C95.9476 131.699 95.794 131.671 95.6504 131.614C95.5069 131.557 95.3765 131.471 95.2672 131.361C95.158 131.252 95.072 131.122 95.0147 130.978C94.9573 130.835 94.9297 130.681 94.9336 130.527L94.4248 130.649C94.4271 130.851 94.471 131.051 94.5536 131.236C94.6363 131.421 94.756 131.587 94.9054 131.723C95.218 132.035 95.6417 132.21 96.0833 132.21C96.525 132.21 96.9486 132.035 97.2613 131.723V131.723C97.5686 131.408 97.7407 130.986 97.7407 130.545C97.7407 130.105 97.5686 129.683 97.2613 129.367C96.9464 129.085 96.5945 128.847 96.2152 128.661C96.0039 128.536 95.8051 128.39 95.6216 128.227C95.5032 128.112 95.422 127.964 95.3885 127.802C95.355 127.64 95.3706 127.471 95.4334 127.319C95.4962 127.166 95.6033 127.035 95.7409 126.943C95.8786 126.852 96.0405 126.803 96.2058 126.804C96.3099 126.799 96.4139 126.816 96.5112 126.853C96.6086 126.891 96.6971 126.948 96.7712 127.021C96.9277 127.203 97.0203 127.431 97.0351 127.671L97.4874 127.492C97.4865 127.34 97.4542 127.189 97.3926 127.05C97.331 126.91 97.2414 126.785 97.1293 126.682C97.0064 126.558 96.8591 126.462 96.6969 126.399C96.5346 126.335 96.361 126.307 96.187 126.314C96.0112 126.313 95.837 126.347 95.675 126.415C95.5129 126.483 95.3665 126.583 95.2446 126.71C94.996 126.961 94.8565 127.299 94.8565 127.652C94.8565 128.005 94.996 128.344 95.2446 128.595C95.5296 128.838 95.8467 129.041 96.187 129.198C96.4471 129.355 96.693 129.535 96.922 129.735L96.8937 129.726ZM103.17 126.597H102.595L100.71 130.508L98.8256 126.597H98.2507L100.38 131.167L98.9481 134.362H99.5229L103.17 126.597ZM114.478 123.063L111.171 127.398L107.863 123.063H107.118V132.204H107.637V123.619L111.171 128.255L114.714 123.619V132.204H115.223V123.063H114.478ZM122.507 126.597H121.989V127.388C121.89 127.257 121.783 127.131 121.668 127.012C121.23 126.573 120.67 126.274 120.062 126.153C119.453 126.032 118.822 126.094 118.249 126.332C117.675 126.569 117.185 126.971 116.841 127.487C116.496 128.004 116.312 128.61 116.312 129.231C116.312 129.851 116.496 130.458 116.841 130.974C117.185 131.49 117.675 131.892 118.249 132.13C118.822 132.367 119.453 132.43 120.062 132.309C120.67 132.188 121.23 131.889 121.668 131.45V131.45C121.782 131.328 121.885 131.205 121.989 131.073V132.213H122.507V126.597ZM121.273 131.054C120.912 131.416 120.452 131.663 119.951 131.763C119.45 131.863 118.93 131.812 118.458 131.617C117.986 131.422 117.582 131.091 117.298 130.666C117.014 130.241 116.862 129.742 116.862 129.231C116.862 128.72 117.014 128.22 117.298 127.796C117.582 127.371 117.986 127.04 118.458 126.845C118.93 126.649 119.45 126.599 119.951 126.699C120.452 126.799 120.912 127.046 121.273 127.407C121.63 127.767 121.875 128.222 121.979 128.717V129.735C121.882 130.238 121.632 130.698 121.263 131.054H121.273ZM123.289 126.597V127.115H124.43V132.204H124.938V127.115H126.088V126.597H124.938V124.213H124.43V126.597H123.289ZM126.899 132.204H127.417V127.747C127.499 127.569 127.614 127.41 127.756 127.275C128.082 126.953 128.523 126.772 128.981 126.772C129.44 126.772 129.88 126.953 130.206 127.275C130.37 127.434 130.5 127.624 130.588 127.835C130.675 128.046 130.719 128.272 130.715 128.5V132.204H131.233V128.434C131.233 127.867 131.01 127.322 130.611 126.918C130.213 126.515 129.671 126.284 129.104 126.276H128.991C128.701 126.271 128.413 126.325 128.144 126.433C127.875 126.541 127.631 126.703 127.426 126.908V123.082H126.908V132.223L126.899 132.204ZM133.495 127.398C133.736 127.157 134.022 126.966 134.336 126.836C134.65 126.706 134.988 126.638 135.328 126.638C135.668 126.638 136.006 126.706 136.32 126.836C136.635 126.966 136.92 127.157 137.161 127.398V127.398C137.444 127.683 137.654 128.032 137.773 128.416H132.873C133.003 128.03 133.223 127.682 133.514 127.398H133.495ZM138.367 128.943C138.369 128.583 138.298 128.227 138.159 127.895C138.02 127.563 137.815 127.262 137.557 127.012C137.118 126.573 136.559 126.274 135.95 126.153C135.341 126.032 134.71 126.094 134.137 126.332C133.564 126.569 133.074 126.971 132.729 127.487C132.384 128.004 132.2 128.61 132.2 129.231C132.2 129.851 132.384 130.458 132.729 130.974C133.074 131.49 133.564 131.892 134.137 132.13C134.71 132.367 135.341 132.43 135.95 132.309C136.559 132.188 137.118 131.889 137.557 131.45C137.709 131.312 137.845 131.157 137.962 130.988L137.415 130.79C137.331 130.885 137.255 130.979 137.17 131.064C136.93 131.304 136.644 131.495 136.329 131.626C136.015 131.756 135.678 131.823 135.337 131.823C134.997 131.823 134.66 131.756 134.345 131.626C134.031 131.495 133.745 131.304 133.505 131.064C133.255 130.818 133.059 130.524 132.928 130.2C132.797 129.876 132.733 129.529 132.741 129.179C132.741 129.085 132.741 128.99 132.741 128.896L138.367 128.943ZM145.077 126.597L143.597 131.205L142.278 127.549H141.986L140.666 131.205L139.187 126.597H138.593L140.478 132.204H140.808L142.108 128.548L143.418 132.204H143.739L145.623 126.597H145.077ZM148.498 129.726C148.606 129.831 148.692 129.956 148.751 130.096C148.809 130.235 148.838 130.385 148.837 130.536C148.837 130.843 148.716 131.137 148.501 131.356C148.286 131.574 147.994 131.7 147.687 131.704C147.535 131.705 147.384 131.675 147.243 131.616C147.103 131.558 146.975 131.473 146.867 131.365C146.65 131.14 146.529 130.839 146.528 130.527L146.019 130.649C146.023 130.852 146.069 131.052 146.153 131.237C146.237 131.422 146.359 131.587 146.509 131.723C146.663 131.877 146.846 132 147.047 132.083C147.249 132.167 147.464 132.21 147.682 132.21C147.9 132.21 148.116 132.167 148.317 132.083C148.519 132 148.702 131.877 148.856 131.723V131.723C149.168 131.411 149.343 130.987 149.343 130.545C149.343 130.104 149.168 129.68 148.856 129.367C148.544 129.085 148.195 128.848 147.819 128.661C147.605 128.536 147.403 128.39 147.216 128.227C147.098 128.112 147.016 127.964 146.983 127.802C146.949 127.64 146.965 127.471 147.028 127.319C147.091 127.166 147.198 127.035 147.335 126.943C147.473 126.852 147.635 126.803 147.8 126.804C147.904 126.798 148.009 126.814 148.106 126.852C148.204 126.889 148.292 126.947 148.366 127.021C148.524 127.203 148.62 127.431 148.639 127.671L149.082 127.492C149.08 127.341 149.049 127.191 148.989 127.052C148.929 126.913 148.842 126.787 148.733 126.682C148.481 126.435 148.143 126.297 147.791 126.297C147.438 126.297 147.1 126.435 146.848 126.682C146.6 126.932 146.46 127.271 146.46 127.624C146.46 127.977 146.6 128.316 146.848 128.566C147.132 128.812 147.449 129.015 147.791 129.17C148.049 129.329 148.295 129.509 148.526 129.707L148.498 129.726Z" fill="#1A1A1A"/>
<path fill-rule="evenodd" clip-rule="evenodd" d="M143.598 103.386C143.532 103.726 143.456 104.065 143.39 104.414C143.07 105.997 142.674 107.618 142.184 109.257C141.74 110.829 141.071 112.327 140.196 113.705C139.253 115.109 138.396 115.59 137.755 115.194C136.975 114.538 136.478 113.607 136.37 112.593C135.936 110.27 135.684 107.916 135.616 105.554C135.503 102.777 135.474 100.204 135.531 97.8359C135.524 96.3241 135.612 94.8133 135.795 93.3126C135.854 93.073 135.848 92.8221 135.779 92.5853C135.709 92.3486 135.578 92.1345 135.399 91.965C135.241 91.8205 135.051 91.716 134.844 91.6603C134.638 91.6045 134.421 91.5992 134.212 91.6446C133.974 91.7031 133.758 91.8296 133.59 92.0086C133.423 92.1877 133.312 92.4115 133.269 92.6529C133.269 92.7754 133.194 92.9168 133.156 93.0676C132.895 92.3458 132.462 91.6988 131.893 91.1828C131.575 90.8799 131.205 90.6372 130.8 90.4666C129.815 90.1023 128.732 90.1023 127.747 90.4666C126.713 90.8297 125.743 91.3545 124.873 92.0215C123.12 93.5409 121.792 95.4892 121.019 97.6757C120.388 99.3445 119.989 101.091 119.831 102.868L119.746 102.991C119.19 103.999 118.578 105.073 117.928 106.232C117.098 107.768 116.288 109.238 115.477 110.643C114.826 111.802 114.112 112.925 113.338 114.007C112.726 114.846 112.283 115.175 112.019 114.949C111.755 114.723 111.755 113.856 112.019 112.207C112.283 110.558 112.763 108.494 113.31 106.345C113.857 104.197 114.356 101.973 114.761 99.8054C115.151 97.8966 115.268 95.9422 115.11 94.0005C114.865 92.2571 114.356 91.1169 113.602 90.5703C113.226 90.3047 112.791 90.135 112.334 90.0759C111.878 90.0167 111.414 90.07 110.982 90.231C109.897 90.5967 108.902 91.1876 108.061 91.965C106.524 93.405 105.189 95.0472 104.094 96.8464C102.975 98.6872 102.171 100.123 101.681 101.153C101.559 101.36 101.455 101.539 101.389 101.681C101.05 102.312 100.739 102.953 100.447 103.565L100.532 102.482C100.664 100.993 100.795 99.8054 100.927 98.9196C100.963 98.6915 100.939 98.4582 100.858 98.2421C100.777 98.0259 100.642 97.8341 100.466 97.6851C100.309 97.5429 100.119 97.4418 99.9134 97.3908C99.7079 97.3398 99.4929 97.3406 99.2877 97.393C98.8636 97.6003 98.5149 98.4767 98.2322 100.022C98.0437 101.115 97.8835 102.227 97.7799 103.339C94.5947 110.024 92.4493 113.925 91.3436 115.043C90.797 115.628 90.4766 115.439 90.4012 114.487C90.3175 113.078 90.3712 111.664 90.5614 110.266C90.7593 108.381 91.042 106.411 91.3907 104.282C91.7393 102.152 92.088 100.201 92.4178 98.439C92.7477 96.6768 93.0021 95.3952 93.1623 94.6696C93.2019 94.496 93.2271 94.3195 93.2377 94.1418C93.3791 93.4068 93.5016 92.7377 93.6052 92.1535C93.7089 91.5692 93.7843 91.2111 93.822 90.9567C94.0682 89.6305 94.2257 88.2893 94.2931 86.9422C94.3403 86.1073 94.2086 85.2719 93.9068 84.4921C93.8007 84.1627 93.6268 83.8593 93.3963 83.6012C93.1658 83.3432 92.8839 83.1362 92.5686 82.9937C92.1776 82.8837 91.7661 82.8683 91.368 82.9485C90.9699 83.0288 90.5965 83.2026 90.2787 83.4555C88.3901 84.8335 86.7974 86.5768 85.5951 88.5819C83.9435 91.1218 82.4638 93.7695 81.166 96.5072C79.7713 99.4222 78.5368 102.196 77.4625 104.828C77.6843 102.322 77.7535 99.8042 77.6699 97.2893C77.6628 95.5626 77.3435 93.8514 76.7275 92.2383C76.5603 91.682 76.2402 91.1838 75.8037 90.8006C75.3672 90.4174 74.8318 90.1646 74.2585 90.0708C73.1842 89.9578 71.8555 90.7116 70.2535 92.3325C68.4064 94.1795 66.7447 97.415 65.2684 102.039C65.2684 100.983 65.3343 100.088 65.372 99.3437C65.4085 99.0366 65.3749 98.7253 65.2737 98.4331C65.1725 98.141 65.0064 97.8756 64.7878 97.6569C64.6218 97.5144 64.4157 97.427 64.198 97.4067C63.9802 97.3864 63.7615 97.4343 63.5721 97.5438C63.3424 97.6916 63.156 97.8977 63.0318 98.141C62.9076 98.3844 62.8502 98.6563 62.8654 98.929C62.7994 99.9656 62.7428 101.266 62.6957 102.802L62.3847 103.17C61.7344 104.097 60.9239 104.901 59.9911 105.544C59.0161 106.232 57.9853 106.837 56.9096 107.354C56.5892 104.527 56.2123 101.766 55.7599 99.1458C55.3076 96.526 54.8741 94.1795 54.4501 92.1063L54.3181 91.409C54.1862 90.6834 53.9129 90.2687 53.5171 90.1556C53.3267 90.0993 53.1259 90.0869 52.93 90.1196C52.7341 90.1523 52.5482 90.229 52.3863 90.3441C52.2279 90.428 52.09 90.5458 51.9825 90.6891C51.875 90.8325 51.8005 90.9979 51.7643 91.1734C51.5816 92.7721 51.2471 94.3499 50.7654 95.8852C50.0145 98.2885 48.9566 100.585 47.6179 102.717C46.4117 104.602 45.4411 105.544 44.7343 105.686C44.0275 105.827 43.5375 105.205 43.2925 103.952C43.0724 102.007 43.1232 100.04 43.4433 98.1092C43.6967 96.0863 44.0776 94.0813 44.5835 92.1063C44.7814 91.3713 44.7155 90.853 44.3856 90.5703C44.2008 90.4166 43.9875 90.3009 43.7578 90.2297C43.5282 90.1586 43.2868 90.1334 43.0475 90.1556C42.4864 90.1716 41.9307 90.27 41.3983 90.4478C41.2441 90.4938 41.1042 90.5787 40.992 90.6941C40.8798 90.8096 40.7991 90.9519 40.7575 91.1074C40.6916 91.4278 40.8329 91.6257 41.1816 91.7105C41.4149 91.7503 41.6368 91.8403 41.8318 91.9744C41.8702 92.067 41.8899 92.1663 41.8899 92.2665C41.8899 92.3668 41.8702 92.4661 41.8318 92.5587C41.1748 95.2313 40.7772 97.9611 40.6444 100.71C40.6098 101.666 40.7307 102.62 41.0025 103.537C40.4777 105.967 39.7269 108.343 38.7597 110.633C37.6078 113.495 36.1513 116.225 34.4154 118.775C33.1184 120.903 31.2555 122.629 29.0345 123.76C28.5823 123.937 28.0996 124.021 27.6144 124.01C27.1292 123.999 26.651 123.891 26.2074 123.694C25.322 123.286 24.5515 122.664 23.9646 121.885C23.3894 121.13 22.9348 120.291 22.617 119.397C24.7683 117.944 26.6205 116.092 28.0733 113.941C29.4643 111.928 30.6572 109.785 31.6355 107.542C32.559 105.46 33.2755 103.291 33.7746 101.068C34.0863 99.7368 34.2444 98.374 34.2458 97.0066C34.1798 94.4905 33.6898 92.8131 32.7946 91.9933C32.3601 91.5876 31.8179 91.3159 31.2329 91.2106C30.6479 91.1053 30.0449 91.1709 29.4963 91.3996C28.0422 91.9285 26.732 92.7902 25.6703 93.9157C24.4164 95.1754 23.3842 96.6378 22.617 98.2411C21.1644 101.498 20.1504 104.933 19.6015 108.456C18.9542 112.052 19.0633 115.743 19.9219 119.293C19.0581 119.571 18.1408 119.639 17.2456 119.491C11.3087 117.06 10.7244 106.298 14.7012 90.2782C14.8897 89.5525 15.0781 88.8458 15.2855 88.1673L16.4634 88.073C18.6968 87.9223 20.9208 87.6584 23.1259 87.3097C25.277 86.9788 27.3649 86.321 29.3172 85.359C30.8602 84.5946 32.2673 83.5822 33.4825 82.3623C34.4621 81.3794 35.2344 80.2097 35.7536 78.9227C36.5954 76.5668 36.5954 74.5533 35.7536 72.8821C34.8567 71.1875 33.3823 69.8703 31.5978 69.1692C29.5435 68.3347 27.3023 68.0694 25.11 68.401C22.9176 68.7327 20.8552 69.6492 19.1397 71.054C15.8424 74.0717 13.2907 77.8137 11.6856 81.9854C10.922 83.8117 10.2551 85.677 9.68783 87.5736C7.63581 87.8938 5.66854 88.6211 3.90173 89.7127C2.27526 90.7918 1.02399 92.3493 0.320751 94.1701C0.222462 94.3792 0.143599 94.5968 0.0851605 94.8203C0.000834033 95.0591 -0.018676 95.316 0.0286188 95.5648C0.132279 95.9041 0.471529 95.9794 1.02752 95.8098C1.21141 95.7614 1.38137 95.6706 1.52376 95.5445C1.66615 95.4185 1.77699 95.2608 1.84738 95.0842C1.91719 94.9123 1.94912 94.7273 1.94099 94.5419C1.93286 94.3565 1.88486 94.1751 1.80026 94.0099C2.38806 92.7704 3.29561 91.71 4.42945 90.9378C5.90361 89.969 7.55707 89.3057 9.29204 88.9871C8.63972 91.3882 8.13617 93.8273 7.78426 96.2904C7.07688 100.881 7.07688 105.553 7.78426 110.143C8.06376 111.979 8.59656 113.768 9.36743 115.458C10.0719 117.031 11.1686 118.398 12.5526 119.425C14.0941 120.488 15.9407 121.017 17.811 120.933C18.6645 120.935 19.5122 120.791 20.3177 120.509C20.6827 121.482 21.2419 122.371 21.9612 123.121C22.6805 123.871 23.5449 124.467 24.5018 124.872C25.4684 125.268 26.5128 125.437 27.5549 125.367C28.5971 125.297 29.6093 124.989 30.514 124.467C32.5447 123.153 34.2495 121.393 35.4991 119.322C37.1492 116.8 38.5295 114.112 39.6173 111.302C40.0978 110.068 40.513 108.81 40.8612 107.533C41.1325 106.604 41.3341 105.655 41.4643 104.696C41.4643 104.696 41.4643 104.762 41.4643 104.791C41.6802 105.307 42.0145 105.765 42.4401 106.129C42.8657 106.492 43.3707 106.75 43.9144 106.883C44.951 107.102 46.1133 106.509 47.4012 105.102C48.6719 103.513 49.7388 101.772 50.5769 99.9185C50.9979 99.0076 51.356 98.1971 51.6512 97.4872C51.7737 98.995 52.1978 104.084 52.4428 109.474C51.2931 110.058 50.1623 110.68 49.0597 111.359C47.1747 112.529 45.4939 113.999 44.0841 115.713C42.3907 117.826 41.1117 120.239 40.3146 122.827C39.4382 125.871 39.4665 128.425 40.4183 130.479C40.9246 131.629 41.7485 132.609 42.793 133.306C43.8546 133.981 45.0989 134.31 46.3552 134.249C47.6386 134.216 48.9027 133.928 50.074 133.402C51.2452 132.877 52.3003 132.123 53.1779 131.186C54.8578 129.273 56.0164 126.959 56.5421 124.467C57.1335 121.768 57.4211 119.012 57.3997 116.25C57.3997 113.441 57.2771 110.928 57.0321 108.711C58.1189 108.2 59.1704 107.618 60.1796 106.967C61.0665 106.394 61.8771 105.71 62.5921 104.932C62.5921 106.113 62.5732 107.263 62.5355 108.381C62.5355 109.983 62.4884 111.208 62.4884 112.009C62.4686 112.209 62.4967 112.411 62.5704 112.598C62.6442 112.784 62.7614 112.951 62.9125 113.083C63.1903 113.266 63.5282 113.334 63.8548 113.272C64.1462 113.255 64.4255 113.15 64.6558 112.97C64.7851 112.851 64.8866 112.705 64.9534 112.542C65.0201 112.379 65.0504 112.204 65.0422 112.028C65.1859 109.524 65.5581 107.038 66.1542 104.602C66.6451 102.19 67.3548 99.8272 68.2745 97.5438C68.9848 95.963 69.9388 94.5034 71.1016 93.2183C71.4741 92.8419 71.8811 92.5011 72.3172 92.2006C75.8794 89.8447 73.7402 106.025 72.6282 109.238C71.5162 112.452 72.3832 113.178 74.7862 113.366C75.028 113.423 75.2795 113.423 75.5213 113.366C75.717 113.337 75.9003 113.253 76.0491 113.122C76.1979 112.992 76.3058 112.821 76.36 112.631C76.5862 111.576 76.9443 110.285 77.4343 108.758C77.9243 107.231 78.3672 105.975 78.763 104.988C79.7996 102.425 80.9901 99.7395 82.3346 96.9312C83.5791 94.3087 84.9958 91.7714 86.5752 89.3358C87.2707 88.2459 88.0589 87.2181 88.9311 86.2637C90.9383 85.048 90.6274 87.2061 89.9865 90.3724C89.0442 94.7544 86.9804 100.286 85.9155 107.335C84.5208 116.608 87.8003 116.561 89.9677 116.825H90.2127C90.9666 116.825 92.0409 115.835 93.4356 113.856C94.9512 111.549 96.3112 109.144 97.5066 106.656C97.4406 108.07 97.4312 109.37 97.4595 110.539C97.5066 112.075 97.648 112.951 97.893 113.159C98.0927 113.246 98.3099 113.285 98.5274 113.274C98.7449 113.262 98.9568 113.2 99.1463 113.093C99.3373 113.01 99.5042 112.88 99.6311 112.716C99.7581 112.551 99.841 112.356 99.8719 112.15C100.011 110.44 100.307 108.746 100.758 107.09C101.16 105.422 101.738 103.802 102.482 102.256C103.698 99.9394 105.077 97.7129 106.61 95.5931C107.24 94.7494 107.92 93.9438 108.645 93.1806C110.587 91.8519 111.209 94.123 110.125 98.0903C109.033 102.007 108.19 105.988 107.599 110.011C106.534 117.126 109.616 116.787 111.18 117.032C111.793 117.145 112.632 116.617 113.668 115.458C115.155 113.641 116.468 111.688 117.588 109.625C118.531 107.985 119.228 106.638 119.765 105.601C119.836 107.371 120.3 109.102 121.122 110.671C121.509 111.439 122.091 112.091 122.811 112.561C123.531 113.031 124.363 113.303 125.221 113.347C126.012 113.378 126.798 113.217 127.513 112.879C128.229 112.541 128.852 112.036 129.33 111.406C130.357 110.086 131.131 108.588 131.611 106.986C132.047 105.63 132.4 104.249 132.666 102.849C132.751 102.406 132.836 102.077 132.902 101.85C132.902 103.801 132.968 105.62 133.09 107.203C133.202 108.795 133.467 110.373 133.882 111.915C134.004 112.358 134.174 112.857 134.391 113.517C134.61 114.132 134.881 114.728 135.201 115.298C135.42 115.772 135.764 116.177 136.195 116.471C136.627 116.765 137.13 116.936 137.651 116.966C138.182 116.932 138.699 116.784 139.168 116.532C139.636 116.28 140.045 115.93 140.365 115.505C141.632 113.851 142.54 111.951 143.032 109.926C143.555 108.121 143.899 106.268 144.059 104.395C144.163 103.726 144.163 103.046 144.059 102.378C143.993 102.086 143.824 102.425 143.598 103.386ZM32.2386 71.0822C32.9794 71.5284 33.6209 72.1217 34.1233 72.8256C35.1787 74.2768 35.3012 76.1616 34.4908 78.4798C34.0266 79.6302 33.3305 80.6727 32.4459 81.5425C31.3396 82.6342 30.0673 83.5439 28.6764 84.2376C26.8016 85.156 24.8008 85.7911 22.7396 86.1223C20.6098 86.4553 18.4549 86.7003 16.275 86.8574H16.143L15.6153 86.9045C20.0915 73.5889 28.6764 70.0268 32.2386 71.0822ZM22.1082 108.852C22.6108 105.562 23.562 102.357 24.9353 99.3248C25.49 98.1696 26.1661 97.0766 26.9519 96.0643C27.6922 95.0633 28.5859 94.1855 29.6 93.4633C29.9107 93.1754 30.3064 92.996 30.7277 92.9518C31.149 92.9076 31.5733 93.0011 31.937 93.2183C32.5653 93.6581 32.9139 94.9146 32.983 96.9878C32.9809 98.2577 32.8291 99.5229 32.5307 100.757C32.0392 102.901 31.345 104.993 30.4575 107.005C29.5298 109.166 28.3869 111.227 27.0462 113.159C25.7398 115.072 24.1065 116.741 22.2213 118.087C21.591 115.045 21.5526 111.909 22.1082 108.852ZM52.2638 123.233C51.1047 129.895 47.4766 133.278 43.2925 131.931C43.3811 132.06 43.4892 132.174 43.6129 132.27C42.773 131.696 42.1181 130.891 41.7282 129.952C40.9114 128.18 40.9114 125.937 41.7282 123.223C42.442 120.83 43.5992 118.592 45.1395 116.627C46.4408 115.028 47.9865 113.644 49.7194 112.527C50.6618 111.915 51.6512 111.359 52.6596 110.831C52.8898 114.969 52.7542 119.119 52.2544 123.233H52.2638ZM132.742 95.3104C132.44 96.9878 132.054 98.9008 131.582 101.049C131.137 103.095 130.558 105.11 129.848 107.08C129.393 108.581 128.585 109.951 127.493 111.076C127.242 111.313 126.933 111.478 126.597 111.557C123.054 110.35 123.846 103.669 124.477 100.946C125.476 96.6391 127.521 92.2854 130.329 91.9744L130.791 92.1063C131.63 92.3985 132.28 93.4633 132.742 95.3104ZM176.09 87.6018C175.483 88.0483 175.056 88.6965 174.884 89.43C174.469 90.9284 174.385 91.9556 174.648 92.5304C174.912 93.1052 175.317 93.1901 175.855 92.7943C176.583 92.0681 177.09 91.1496 177.315 90.1462C177.655 88.8897 177.655 88.0699 177.315 87.6867C177.023 87.3003 176.609 87.272 176.09 87.6395V87.6018ZM197.463 102.397C197.218 102.453 197.011 102.68 196.813 103.085C196.108 104.717 195.179 106.243 194.052 107.618C193.012 108.966 191.734 110.112 190.282 111.001C189.769 111.369 189.167 111.594 188.538 111.654C187.908 111.714 187.275 111.605 186.701 111.34C185.627 110.793 184.86 109.282 184.402 106.807C184.285 106.049 184.225 105.284 184.223 104.517C184.226 103.686 184.276 102.855 184.374 102.029C184.567 100.806 184.828 99.5953 185.156 98.4013C185.55 96.8492 186.106 95.3427 186.814 93.9062C187.021 93.3424 187.345 92.8285 187.763 92.3982C188.182 91.9679 188.687 91.6308 189.246 91.409C189.465 91.3503 189.697 91.3615 189.91 91.4408C190.123 91.5202 190.306 91.6639 190.433 91.8519C190.642 92.2413 190.724 92.6859 190.669 93.1241C190.631 93.6895 190.725 93.9816 190.951 94.0005C191.187 94.0005 191.413 93.8591 191.639 93.5199C191.885 93.1373 191.979 92.677 191.903 92.2289C191.867 91.9042 191.765 91.5904 191.602 91.3068C191.44 91.0232 191.222 90.7757 190.961 90.5797C190.521 90.2685 189.991 90.1096 189.453 90.1274C186.729 89.7316 181.688 91.7105 180.444 99.551C180.086 101.659 180.029 103.807 180.274 105.931C179.916 106.638 179.53 107.363 179.125 108.108C178.721 108.863 178.268 109.59 177.768 110.285C175.449 111.444 175.355 107.571 175.817 104.63C176.345 101.21 176.505 98.4013 176.759 96.9218C177.099 95.2067 177.23 92.9922 174.403 94.2455H174.337C174.154 94.2526 173.978 94.3175 173.834 94.4309C173.69 94.5444 173.586 94.7005 173.536 94.8769C173.216 96.2339 172.902 98.0181 172.594 100.23C172.443 101.426 172.321 102.633 172.245 103.839C171.803 104.922 171.286 105.974 170.7 106.986C169.944 108.348 169.026 109.613 167.967 110.756C167.644 111.095 167.273 111.384 166.864 111.613C163.284 112.386 164.669 102.19 165.262 96.2339C165.668 92.144 166.28 87.4416 166.864 83.5968C168.683 84.0868 174.648 85.9056 179.398 85.8773C185.297 85.8773 186.871 81.9006 187.088 80.0724C187.559 76.1804 187.719 69.2069 182.63 60.8764C179.351 55.4861 174.95 50.3691 165.752 46.741C151.683 41.0868 151.25 36.7897 150.675 31.0978C150.1 25.4059 149.44 21.6176 145.275 20.091C141.11 18.5644 136.662 20.0062 132.742 21.3726C132.497 20.7035 131.611 20.5339 128.633 20.2889C125.655 20.0439 123.657 20.3831 119.294 22.1077C114.931 23.8322 107.043 25.2646 103.783 28.0163C100.522 30.768 99.1934 30.9941 98.1945 31.1732C97.1956 31.3522 94.8114 31.4465 92.955 31.5784C91.0985 31.7103 89.9017 31.9459 89.7698 30.9282C89.6379 29.9104 91.4661 29.3356 93.3979 29.3356C94.3638 29.2941 95.3175 29.1034 96.225 28.7702C96.3287 28.9209 96.2909 30.2685 98.2982 30.3533C100.305 30.4381 101.512 27.7524 100.729 26.4143C99.9473 25.0761 98.3642 25.8488 98.449 25.7829C98.7375 24.4087 98.6162 22.9801 98.1003 21.6742C97.7951 21.0605 97.3637 20.5182 96.8342 20.083C96.3048 19.6477 95.6893 19.3293 95.0282 19.1486C93.7702 18.8686 92.4791 18.7671 91.1928 18.8471C90.2065 18.8495 89.2284 18.6673 88.3091 18.3099C87.4704 17.9801 87.3668 18.1497 87.3668 18.6303C87.3668 19.1109 87.6118 19.4031 86.5658 19.8271C85.5198 20.2512 84.3983 21.1182 84.5962 22.1548C84.7941 23.1914 85.4349 24.5861 84.9166 25.5473C84.3983 26.5085 82.0896 30.5983 81.2791 30.2591C80.4687 29.9198 81.6184 28.2142 82.0896 26.9608C82.432 25.668 82.396 24.3041 81.9859 23.0312C81.7544 21.5228 81.7544 19.9879 81.9859 18.4796C82.1555 16.4064 82.655 13.2212 82.655 13.2212C85.2748 10.2992 88.1098 7.57761 91.1362 5.07917C94.4628 2.38401 94.7455 4.3347 98.0343 3.35464C101.323 2.37459 102.869 0.640639 102.652 0.329659C102.435 0.0186796 101.615 -0.226335 98.8825 0.329659C96.9797 0.692396 95.0402 0.825279 93.1058 0.725451C91.221 0.725451 91.2776 2.25208 87.8474 4.14623C84.813 5.78594 82.0613 7.19948 79.7619 10.0171C77.4626 12.8348 76.8689 17.556 76.8029 23.8416C76.7369 30.1272 76.1715 29.8822 75.3328 32.0967C74.4941 34.3113 71.8649 37.4493 71.8366 39.0136C71.8958 40.1674 72.2996 41.2769 72.9958 42.1988C73.2973 42.7548 73.1654 48.899 73.6837 50.9722C74.202 53.0454 77.1233 56.1835 76.5108 56.2306C74.8066 56.3311 73.0979 56.3311 71.3937 56.2306C68.0672 56.1081 63.5533 55.9479 62.4319 55.3825C61.7162 54.96 60.8838 54.7783 60.0571 54.8642C58.0364 55.0563 56.0029 55.0752 53.9789 54.9207C49.889 54.7794 44.9793 54.6946 41.3041 54.1857C37.6289 53.6768 37.5346 53.102 34.1987 52.5083C31.9087 52.026 29.5434 52.026 27.2535 52.5083C24.4264 52.8852 22.2495 53.4506 21.4674 55.1375C21.326 55.4673 21.4674 56.0139 22.7773 55.7594C23.1259 55.6935 23.6348 55.2223 24.1814 55.4202C24.7279 55.6181 25.5101 55.0998 27.9979 55.5898C30.4858 56.0798 29.6471 57.5405 31.3245 58.5959C33.0019 59.6514 34.2741 57.9645 35.8195 57.4086C37.365 56.8526 37.921 56.9751 44.1972 59.6702C50.4733 62.3654 53.536 60.443 56.8908 60.7351C60.2456 61.0272 59.7179 62.6198 66.8327 64.6742C72.3307 66.2209 78.1084 66.498 83.7293 65.4846C87.4987 64.8909 89.2798 65.9464 92.3707 66.9924C95.4617 68.0384 98.2134 67.1243 100.475 66.8604C102.737 66.5966 109.38 65.183 113.875 64.4669C118.371 63.7507 119.69 62.6575 124.175 61.0838C128.661 59.51 130.772 58.8409 133.599 58.7938C136.426 58.7467 137.802 59.3121 140.469 59.51C143.136 59.7079 144.238 58.7184 146.227 58.6902C148.215 58.6619 150.939 55.7406 149.553 54.9207C149.264 54.787 148.939 54.7496 148.627 54.814C148.315 54.8785 148.032 55.0414 147.819 55.2788C146.695 55.8419 145.434 56.0771 144.182 55.9573C141.081 55.8065 141.204 53.4129 139.998 52.6308C139.767 52.4956 139.51 52.4111 139.244 52.3828C138.978 52.3546 138.709 52.3834 138.455 52.4672C138.201 52.551 137.967 52.6879 137.77 52.8688C137.573 53.0498 137.417 53.2706 137.312 53.5166C137.095 54.2328 137.142 55.7123 134.655 55.929C132.167 56.1458 131.083 55.3354 125.231 54.9867C119.379 54.638 118.54 57.5499 115.449 57.6724C112.358 57.7949 109.644 56.9562 105.573 56.8903C101.502 56.8243 97.7233 58.1342 97.092 58.0022C96.4606 57.8703 96.404 55.6086 94.067 54.0632C91.7299 52.5177 88.328 52.6496 86.9804 50.2937C85.6328 47.9378 87.1406 44.1872 92.9833 39.2304C98.8259 34.2736 104.131 33.2841 110.417 30.2779C116.703 27.2718 118.173 23.3327 123.714 23.6814C129.255 24.0301 130.555 22.8898 130.555 22.8898C133.147 22.626 135.606 20.1664 141.458 20.2889C146.839 20.826 148.875 22.1736 149.468 31.324C150.062 40.4743 153.238 42.5475 165.131 47.8813C183.035 55.8914 186.598 73.8339 185.391 79.4316C184.864 84.1434 180.68 84.2753 178.55 84.1999C177.195 84.0971 175.85 83.8924 174.526 83.5874C172.198 83.0691 170.238 82.645 167.157 81.7027C167.496 79.5635 167.826 77.8295 168.099 76.8118C168.806 73.8905 169.71 69.9043 165.856 72.6089C165.468 72.9184 165.103 73.2553 164.763 73.6172C163.922 74.7326 163.336 76.0195 163.048 77.3866C162.812 78.329 162.605 79.3468 162.417 80.4022C159.939 79.7321 157.421 79.2253 154.878 78.885C152.876 78.5549 150.827 78.6513 148.865 79.1677C148.073 79.3941 147.348 79.8127 146.756 80.3865C146.165 80.9603 145.724 81.6713 145.473 82.4566C145.186 83.2133 145.101 84.0319 145.228 84.8313C145.379 85.3402 145.586 85.5852 145.869 85.5569C146.151 85.5287 146.321 85.2365 146.368 84.6711C146.361 83.9384 146.529 83.2147 146.856 82.5593C147.184 81.904 147.663 81.3359 148.253 80.9016C149.48 80.1835 150.896 79.8549 152.314 79.9593C154.014 80.0267 155.702 80.2795 157.347 80.7132C159.081 81.1655 160.664 81.6555 162.058 82.1267C161.691 84.1245 161.371 86.226 161.116 88.4029C160.534 92.9428 160.282 97.519 160.362 102.095C158.099 101.997 155.852 102.525 153.869 103.622C149.732 98.9102 148.215 96.1868 147.81 92.7943C147.414 89.0814 150.778 86.9705 152.72 87.6018L153.247 87.7526C153.705 87.9528 154.13 88.2196 154.51 88.5442C155.46 89.3902 156.185 90.4588 156.621 91.654C156.923 92.2665 157.196 92.4927 157.45 92.3137C157.705 92.1346 157.761 91.6917 157.62 90.9661C157.323 89.9599 156.79 89.0392 156.065 88.2803C155.013 87.0771 153.559 86.2969 151.975 86.0846C150.918 85.953 149.844 86.047 148.826 86.3605C147.807 86.674 146.867 87.1999 146.067 87.9034C144.532 89.242 143.576 91.1235 143.4 93.1524C143.204 95.5073 143.874 97.8528 145.284 99.7489C146.387 101.266 147.791 103 149.478 104.951L150.477 106.138C149.267 107.183 148.227 108.411 147.395 109.776C145.935 112.254 145.369 114.318 145.718 115.948C145.849 116.705 146.144 117.425 146.584 118.055C147.024 118.685 147.597 119.211 148.262 119.595C149.515 120.308 150.939 120.664 152.38 120.622C153.378 120.637 154.371 120.487 155.321 120.179H155.424C155.613 120.123 155.799 120.057 155.98 119.981C156.805 119.651 157.533 119.12 158.101 118.436C161.681 114.874 158.826 109.22 155.047 105.083L154.68 104.687C155.688 104.16 156.772 103.791 157.893 103.594C158.726 103.441 159.575 103.397 160.419 103.462C160.419 104.225 160.504 104.979 160.569 105.705C160.727 107.315 161.091 108.899 161.653 110.416C162.445 112.301 163.51 113.319 164.848 113.47C166.186 113.62 167.53 113.027 168.881 111.689C169.869 110.634 170.738 109.474 171.473 108.23C171.708 107.834 171.934 107.439 172.161 107.033C172.16 107.949 172.255 108.861 172.443 109.757C172.614 110.731 172.986 111.659 173.536 112.48C173.766 112.842 174.099 113.125 174.493 113.293C174.887 113.461 175.322 113.506 175.742 113.423C176.697 113.168 177.544 112.609 178.154 111.83C178.945 110.894 179.639 109.88 180.227 108.805C180.378 108.541 180.519 108.277 180.651 108.023C181.594 111.397 183.695 113.517 186.824 113.489C187.65 113.544 188.479 113.422 189.255 113.13C191.046 112.447 192.657 111.364 193.967 109.964C195.439 108.491 196.621 106.756 197.454 104.847C197.746 104.262 197.895 103.616 197.887 102.962C197.896 102.51 197.699 102.34 197.463 102.397ZM155.151 112.056C155.77 112.93 156.206 113.921 156.433 114.968C156.563 115.528 156.552 116.111 156.401 116.666C156.25 117.22 155.963 117.728 155.566 118.144C155.137 118.554 154.632 118.876 154.079 119.091C153.526 119.306 152.936 119.41 152.343 119.397C151.119 119.412 149.915 119.085 148.865 118.455C148.336 118.15 147.884 117.727 147.545 117.219C147.207 116.71 146.991 116.13 146.915 115.524C146.688 114.186 147.188 112.471 148.413 110.379C149.187 109.131 150.139 108.004 151.24 107.033C152.757 108.805 154.048 110.473 155.151 112.056ZM214.736 102.369C214.401 102.188 214.025 102.094 213.643 102.095C211.54 101.999 209.448 102.454 207.575 103.415L207.48 103.33C201.826 98.3165 200.573 96.0548 201.449 91.6917C201.536 91.0007 201.794 90.342 202.198 89.7747C202.602 89.2075 203.14 88.7493 203.765 88.4411C204.39 88.133 205.081 87.9846 205.777 88.0091C206.473 88.0337 207.152 88.2305 207.754 88.5819C208.704 89.4279 209.429 90.4965 209.864 91.6917C210.157 92.3042 210.439 92.5304 210.694 92.3514C210.948 92.1723 211.005 91.7294 210.863 91.0038C210.563 89.999 210.03 89.0791 209.308 88.318C208.256 87.1148 206.803 86.3346 205.219 86.1223C204.176 85.9874 203.117 86.072 202.109 86.3706C201.101 86.6692 200.167 87.1753 199.367 87.8563C197.832 89.1949 196.876 91.0764 196.7 93.1052C196.507 95.4599 197.177 97.8041 198.584 99.7018C199.696 101.222 201.097 102.956 202.787 104.904L203.786 106.091C202.586 107.126 201.553 108.341 200.724 109.691C199.263 112.169 198.697 114.233 199.046 115.863C199.177 116.621 199.473 117.34 199.912 117.97C200.352 118.6 200.925 119.126 201.591 119.51C202.844 120.243 204.276 120.615 205.728 120.585C206.924 120.601 208.113 120.38 209.224 119.934V120.01L209.695 119.755C210.081 119.568 210.445 119.337 210.779 119.067C216.904 114.723 212.984 108.551 208.63 104.329C209.472 103.95 210.359 103.678 211.269 103.518C212.291 103.329 213.338 103.303 214.369 103.443C214.447 103.448 214.525 103.437 214.598 103.409C214.672 103.381 214.738 103.338 214.793 103.283C214.926 103.171 215.018 103.019 215.057 102.849C215.051 102.68 214.944 102.519 214.736 102.369ZM209.789 114.893C209.92 115.452 209.909 116.036 209.758 116.59C209.606 117.145 209.319 117.653 208.922 118.068C208.494 118.479 207.988 118.801 207.435 119.016C206.882 119.231 206.292 119.335 205.699 119.322C204.475 119.336 203.271 119.01 202.222 118.379C201.691 118.076 201.239 117.653 200.9 117.145C200.561 116.636 200.346 116.055 200.271 115.449C200.045 114.111 200.545 112.395 201.77 110.303C202.543 109.056 203.496 107.929 204.597 106.958C206.076 108.692 207.367 110.36 208.47 111.943C209.105 112.827 209.554 113.83 209.789 114.893Z" fill="url(#paint0_linear_4_684)"/>
<defs>
<linearGradient id="paint0_linear_4_684" x1="42.9344" y1="33.3877" x2="169.767" y2="160.22" gradientUnits="userSpaceOnUse">
<stop stop-color="#B31180"/>
<stop offset="0.17" stop-color="#A21581"/>
<stop offset="0.47" stop-color="#8B1C81"/>
<stop offset="0.76" stop-color="#7D2082"/>
<stop offset="1" stop-color="#782182"/>
</linearGradient>
</defs>
</svg>
