<svg width="1335" height="1326" viewBox="0 0 1335 1326" fill="none" xmlns="http://www.w3.org/2000/svg">
<g opacity="0.3">
<path d="M34.4983 959.229C9.5468 945.681 -3.84347 917.608 1.33058 889.691L138.066 151.933C143.24 124.017 165.802 102.607 193.951 98.9009L937.854 0.964159C966.003 -2.74175 993.337 12.0995 1005.56 37.7257L1328.58 714.955C1340.8 740.582 1335.14 771.164 1314.54 790.708L770.278 1307.2C749.683 1326.74 718.846 1330.8 693.894 1317.25L34.4983 959.229Z" fill="url(#paint0_radial_4_630)"/>
<path d="M34.4983 959.229C9.5468 945.681 -3.84347 917.608 1.33058 889.691L138.066 151.933C143.24 124.017 165.802 102.607 193.951 98.9009L937.854 0.964159C966.003 -2.74175 993.337 12.0995 1005.56 37.7257L1328.58 714.955C1340.8 740.582 1335.14 771.164 1314.54 790.708L770.278 1307.2C749.683 1326.74 718.846 1330.8 693.894 1317.25L34.4983 959.229Z" fill="url(#paint1_linear_4_630)"/>
</g>
<defs>
<radialGradient id="paint0_radial_4_630" cx="0" cy="0" r="1" gradientUnits="userSpaceOnUse" gradientTransform="translate(426.128 500.342) rotate(21.4706) scale(935.157 2182.48)">
<stop stop-color="white"/>
<stop offset="0.367826" stop-color="#E8B4E2"/>
<stop offset="1" stop-color="#7775E7"/>
</radialGradient>
<linearGradient id="paint1_linear_4_630" x1="671.121" y1="365.755" x2="733.716" y2="-111.34" gradientUnits="userSpaceOnUse">
<stop stop-color="white"/>
<stop offset="1" stop-color="white" stop-opacity="0"/>
</linearGradient>
</defs>
</svg>
